name processed_emg_signals												
nRows=84												
nColumns=7												
 												
endheader												
time	RGLTMED	RRF	RADDLONG	RST	RTA	RGM						
0.885	0.107089961	0.036709627	0.031694857	0.074846889	0.135413654	0.2561106						
0.886	0.106848848	0.036783934	0.031561777	0.074810876	0.136968537	0.259224794						
0.887	0.106594365	0.036859957	0.031431166	0.074756828	0.138514426	0.262314036						
0.888	0.106326605	0.036937644	0.031303178	0.074684654	0.140050111	0.265376135						
0.889	0.106045669	0.037016934	0.031177964	0.074594287	0.141574385	0.268408903						
0.89	0.105751664	0.037097767	0.031055673	0.074485692	0.143086042	0.271410151						
0.891	0.105444705	0.037180078	0.030936453	0.07435886	0.14458388	0.274377694						
0.892	0.105124911	0.037263797	0.030820452	0.074213811	0.1460667	0.277309356						
0.893	0.104792411	0.037348855	0.030707815	0.074050593	0.147533311	0.28020297						
0.894	0.10444734	0.037435175	0.030598685	0.073869281	0.148982529	0.283056378						
0.895	0.104089839	0.037522682	0.030493205	0.073669977	0.150413179	0.285867441						
0.896	0.103720059	0.037611295	0.030391514	0.073452809	0.151824097	0.288634033						
0.897	0.103338156	0.037700931	0.030293752	0.073217932	0.153214128	0.29135405						
0.898	0.102944295	0.037791506	0.030200055	0.072965525	0.154582132	0.294025409						
0.899	0.102538647	0.037882933	0.03011056	0.072695792	0.155926983	0.296646053						
0.9	0.102121392	0.037975121	0.030025401	0.072408961	0.157247568	0.29921395						
0.901	0.101692717	0.03806798	0.029944708	0.072105284	0.158542795	0.3017271						
0.902	0.101252817	0.038161418	0.029868614	0.071785034	0.159811584	0.304183534						
0.903	0.100801894	0.038255338	0.029797246	0.071448506	0.16105288	0.306581317						
0.904	0.100340159	0.038349646	0.029730732	0.071096017	0.162265642	0.308918552						
0.905	0.099867829	0.038444244	0.029669196	0.070727903	0.163448855	0.311193382						
0.906	0.099385129	0.038539035	0.029612763	0.070344519	0.164601524	0.313403989						
0.907	0.098892293	0.038633918	0.029561553	0.069946236	0.165722677	0.315548603						
0.908	0.098389562	0.038728795	0.029515687	0.069533447	0.166811366	0.317625499						
0.909	0.097877184	0.038823566	0.029475282	0.069106557	0.16786667	0.319632999						
0.91	0.097355413	0.038918129	0.029440454	0.068665987	0.168887692	0.321569479						
0.911	0.096824515	0.039012385	0.029411318	0.068212174	0.169873562	0.323433366						
0.912	0.096284758	0.039106232	0.029387984	0.067745567	0.170823438	0.325223144						
0.913	0.09573642	0.039199571	0.029370564	0.067266628	0.171736507	0.326937353						
0.914	0.095179786	0.039292302	0.029359164	0.066775829	0.172611983	0.328574595						
0.915	0.094615147	0.039384326	0.029353891	0.066273653	0.173449112	0.330133532						
0.916	0.094042801	0.039475545	0.029354847	0.065760594	0.174247167	0.331612889						
0.917	0.093463053	0.039565861	0.029362133	0.065237153	0.175005455	0.333011456						
0.918	0.092876214	0.039655179	0.029375849	0.064703838	0.175723312	0.334328091						
0.919	0.0922826	0.039743402	0.02939609	0.064161165	0.176400106	0.335561721						
0.92	0.091682535	0.039830439	0.02942295	0.063609655	0.177035238	0.336711341						
0.921	0.091076348	0.039916198	0.029456519	0.063049834	0.177628138	0.33777602						
0.922	0.090464373	0.040000588	0.029496886	0.062482231	0.178178272	0.338754897						
0.923	0.089846949	0.040083523	0.029544136	0.061907379	0.178685138	0.339647187						
0.924	0.089224419	0.040164916	0.02959835	0.061325812	0.179148265	0.340452178						
0.925	0.088597134	0.040244684	0.029659608	0.060738066	0.179567216	0.341169235						
0.926	0.087965446	0.040322745	0.029727986	0.060144677	0.179941587	0.341797801						
0.927	0.087329711	0.040399023	0.029803555	0.059546182	0.180271008	0.342337392						
0.928	0.086690291	0.040473441	0.029886385	0.058943115	0.180555139	0.342787606						
0.929	0.086047548	0.040545926	0.029976541	0.058336009	0.180793676	0.343148117						
0.93	0.08540185	0.040616407	0.030074083	0.057725393	0.180986344	0.343418676						
0.931	0.084753565	0.04068482	0.030179069	0.057111793	0.181132902	0.343599114						
0.932	0.084103063	0.040751098	0.030291553	0.056495734	0.181233141	0.343689338						
0.933	0.083450719	0.040815182	0.030411583	0.055877731	0.181286883	0.343689336						
0.934	0.082796905	0.040877015	0.030539203	0.055258297	0.181293981	0.34359917						
0.935	0.082141996	0.040936543	0.030674454	0.054637938	0.181254318	0.343418979						
0.936	0.081486367	0.040993714	0.030817371	0.054017153	0.181167807	0.34314898						
0.937	0.080830392	0.041048482	0.030967984	0.053396435	0.181034392	0.342789462						
0.938	0.080174446	0.041100804	0.031126319	0.052776268	0.180854045	0.342340792						
0.939	0.079518903	0.04115064	0.031292395	0.052157127	0.180626767	0.341803407						
0.94	0.078864134	0.041197953	0.031466228	0.05153948	0.180352585	0.341177816						
0.941	0.078210508	0.04124271	0.031647827	0.050923786	0.180031556	0.340464599						
0.942	0.077558395	0.041284883	0.031837196	0.050310491	0.179663763	0.339664406						
0.943	0.076908158	0.041324446	0.032034333	0.049700036	0.179249313	0.338777953						
0.944	0.076260158	0.041361378	0.032239231	0.049092846	0.178788342	0.337806022						
0.945	0.075614755	0.04139566	0.032451876	0.04848934	0.17828101	0.33674946						
0.946	0.0749723	0.041427277	0.032672249	0.047889922	0.1777275	0.335609176						
0.947	0.074333144	0.04145622	0.032900324	0.047294987	0.177128021	0.334386137						
0.948	0.07369763	0.04148248	0.03313607	0.046704917	0.176482806	0.333081374						
0.949	0.073066096	0.041506055	0.033379447	0.046120082	0.17579211	0.331695968						
0.95	0.072438875	0.041526943	0.033630411	0.045540841	0.175056211	0.330231059						
0.951	0.071816293	0.04154515	0.033888911	0.044967538	0.174275411	0.328687838						
0.952	0.071198669	0.04156068	0.034154889	0.044400506	0.173450032	0.327067547						
0.953	0.070586315	0.041573546	0.034428282	0.043840065	0.172580421	0.325371474						
0.954	0.069979536	0.041583761	0.034709017	0.043286522	0.171666943	0.323600956						
0.955	0.069378628	0.041591342	0.034997018	0.04274017	0.170709988	0.321757373						
0.956	0.06878388	0.041596309	0.035292201	0.042201289	0.169709965	0.319842145						
0.957	0.06819557	0.041598688	0.035594474	0.041670146	0.168667307	0.317856735						
0.958	0.067613969	0.041598505	0.035903739	0.041146994	0.167582465	0.315802642						
0.959	0.067039339	0.04159579	0.036219893	0.040632073	0.166455916	0.3136814						
0.96	0.066471929	0.041590577	0.036542825	0.040125609	0.165288153	0.311494577						
0.961	0.065911981	0.041582903	0.036872418	0.039627814	0.164079696	0.309243774						
0.962	0.065359727	0.041572808	0.037208546	0.039138888	0.162831083	0.30693062						
0.963	0.064815385	0.041560334	0.03755108	0.038659016	0.161542876	0.304556771						
0.964	0.064279165	0.041545526	0.037899883	0.03818837	0.160215659	0.302123911						
0.965	0.063751265	0.041528435	0.038254812	0.037727108	0.158850037	0.299633746						
0.966	0.063231872	0.04150911	0.038615717	0.037275376	0.157446641	0.297088006						
0.967	0.062721161	0.041487606	0.038982442	0.036833305	0.156006122	0.294488438						
0.968	0.062219294	0.041463981	0.039354827	0.036401013	0.154529157	0.291836813						
